<?xml version="1.0" encoding="UTF-8" standalone="no"?>
<!DOCTYPE svg PUBLIC "-//W3C//DTD SVG 1.1//EN" "http://www.w3.org/Graphics/SVG/1.1/DTD/svg11.dtd">
<svg xmlns:xl="http://www.w3.org/1999/xlink" xmlns:dc="http://purl.org/dc/elements/1.1/" version="1.1" xmlns="http://www.w3.org/2000/svg" viewBox="0 0 530 530" width="530" height="530">
  <defs/>
  <metadata> Produced by OmniGraffle 7.15.2 
    <dc:date>2020-05-02 19:33:51 +0000</dc:date>
  </metadata>
  <g id="EdgeNet_logo_no_text" fill="none" stroke="none" stroke-opacity="1" stroke-dasharray="none" fill-opacity="1">
    <title>EdgeNet logo no text</title>
    <g id="Logo: Master layer">
      <title>Master layer</title>
      <g id="Group_30">
        <title>blue patches</title>
        <g id="Graphic_37">
          <title>blue patch 7</title>
          <path d="M 223.35367 46.610295 C 195.0587 49.070735 162.34782 49.227925 139.83804 68.669445 C 134.9744 79.95517 137.1681 93.2754 134.87152 105.23753 C 143.7213 130.25122 163.80408 149.57463 177.61706 171.91164 C 191.88347 178.87302 201.9498 158.09773 215.62487 153.79222 C 228.83598 144.1809 250.84084 146.49046 261.16617 133.65272 C 261.18747 112.97082 271.37646 91.4073 265.56907 71.186185 C 259.1497 64.232465 253.46363 56.852505 247.8012 49.746455 C 240.3029 46.112335 231.46865 46.673895 223.35367 46.610295 Z" fill="#5785dc"/>
        </g>
        <g id="Graphic_36">
          <title>blue patch 6</title>
          <path d="M 110.76438 113.02772 C 88.23597 113.92307 82.54107 141.51969 71.05541 156.34197 C 49.33828 197.35082 15.315352 238.02966 21.534472 287.5534 C 21.322722 306.10385 28.61764 329.24108 49.94407 331.90606 C 59.88271 339.1064 79.32542 346.96943 84.95523 330.617 C 84.1531 312.69034 72.89169 296.21745 74.91617 277.56455 C 71.82593 229.623 108.17099 182.581 156.30009 176.069 C 169.33873 163.36427 144.45325 148.5102 139.22222 135.57156 C 131.84939 126.32589 124.86322 111.4529 110.76438 113.02772 Z" fill="#5785dc"/>
        </g>
        <g id="Graphic_35">
          <title>blue patch 5</title>
          <path d="M 91.09363 345.4161 C 78.12034 346.2025 65.75148 355.19796 66.28336 369.06008 C 58.39846 386.1415 77.17729 402.05847 82.90834 416.98466 C 93.27668 430.3869 97.64259 451.245 112.44965 459.4284 C 127.15045 458.6571 145.30603 459.8778 149.0146 441.42333 C 157.84396 422.09005 172.97009 404.23786 178.0933 383.8352 C 172.85876 370.56166 152.87473 377.0339 141.70746 371.5266 C 121.96136 368.51316 110.25707 347.69867 91.09363 345.4161 Z" fill="#5785dc"/>
        </g>
        <g id="Graphic_34">
          <title>blue patch 4</title>
          <path d="M 321.48425 360.02548 C 304.38277 367.5074 286.63746 375.689 267.16505 374.51767 C 247.46864 376.7625 229.56643 366.7191 210.77554 364.49535 C 194.39943 370.6811 190.91699 392.0167 180.87162 404.8131 C 171.0856 424.30423 157.29263 442.51575 150.59139 463.0556 C 153.80924 477.6658 156.11636 501.1727 176.00992 501.2643 C 236.93063 503.9345 298.1818 503.0397 359.01215 501.57124 C 377.4004 490.3007 404.13047 484.71645 414.15724 463.8815 C 413.29796 453.1464 410.3197 442.6161 410.7365 431.77214 C 394.90677 407.35175 368.6733 391.28117 346.9125 372.3693 C 339.38465 367.09257 331.19397 359.9446 321.48425 360.02548 Z" fill="#5785dc"/>
        </g>
        <g id="Graphic_33">
          <title>blue patch 3</title>
          <path d="M 429.2744 342.6265 C 416.3326 356.12758 399.33013 364.60956 381.36706 369.13598 C 371.06533 372.55704 371.60303 386.87623 380.17007 392.01544 C 392.4999 402.1658 403.5861 414.4749 417.0384 422.9045 C 425.12367 426.43124 433.04924 419.2303 441.492 419.79606 C 456.66336 419.74246 459.39904 401.9375 466.9899 392.1031 C 473.1225 384.9414 473.82456 375.14717 467.84027 367.66276 C 464.3975 360.05687 464.8052 349.53427 455.31237 346.0919 C 447.2725 343.11745 437.2627 336.70928 429.2744 342.6265 Z" fill="#5785dc"/>
        </g>
        <g id="Graphic_32">
          <title>blue patch 2</title>
          <path d="M 422.82353 140.42169 C 404.5737 148.39074 388.59838 162.3989 374.78224 176.63263 C 367.9064 196.64707 396.15925 195.76876 407.18737 203.84803 C 434.98615 219.77088 454.0924 250.24004 451.328 282.8603 C 454.103 301.01313 443.4017 317.28543 444.01215 334.72973 C 449.5359 348.666 466.61927 343.7428 474.9943 335.68955 C 488.5306 333.3531 505.3111 329.48524 506.94167 312.8148 C 515.42154 278.2612 513.5721 239.2617 492.59346 209.29126 C 478.57425 187.83015 470.3538 160.95309 450.4686 144.11589 C 442.0192 139.90098 431.93 141.28533 422.82353 140.42169 Z" fill="#5785dc"/>
        </g>
        <g id="Graphic_31">
          <title>blue patch 1</title>
          <path d="M 314.6818 47.051135 C 301.2109 47.599445 298.9752 65.129265 286.7186 69.612525 C 272.65273 85.33519 276.7513 109.50133 271.4396 128.83687 C 273.57135 146.34159 297.10294 141.98653 308.44295 150.46633 C 325.347 156.35104 335.34244 172.82096 350.99318 180.03664 C 369.63383 174.11812 383.37434 156.48305 399.47783 145.34804 C 409.90897 138.528 416.18497 127.5443 414.0233 115.17057 C 419.89407 101.21163 424.7087 86.03032 406.81907 78.51878 C 381.7161 55.900705 347.53274 48.449415 314.6818 47.051135 Z" fill="#5785dc"/>
        </g>
      </g>
      <g id="Group_22">
        <title>links</title>
        <g id="Graphic_29">
          <title>link 7</title>
          <line x1="279.6667" y1="33.858672" x2="246.33337" y2="276.52533" stroke="black" stroke-linecap="butt" stroke-linejoin="round" stroke-width="21.333333"/>
        </g>
        <g id="Graphic_28">
          <title>link 6</title>
          <line x1="106.3335" y1="80.52534" x2="246.3335" y2="276.52533" stroke="black" stroke-linecap="butt" stroke-linejoin="round" stroke-width="21.333333"/>
        </g>
        <g id="Graphic_27">
          <title>link 5</title>
          <line x1="39.666706" y1="359.192" x2="246.33337" y2="276.52533" stroke="black" stroke-linecap="butt" stroke-linejoin="round" stroke-width="21.333333"/>
        </g>
        <g id="Graphic_26">
          <title>link 4</title>
          <line x1="127.66684" y1="489.85866" x2="246.3335" y2="276.52533" stroke="black" stroke-linecap="butt" stroke-linejoin="round" stroke-width="21.333333"/>
        </g>
        <g id="Graphic_25">
          <title>link 3</title>
          <line x1="438.3335" y1="443.192" x2="246.3335" y2="276.52533" stroke="black" stroke-linecap="butt" stroke-linejoin="round" stroke-width="21.333333"/>
        </g>
        <g id="Graphic_24">
          <title>link 2</title>
          <line x1="498.3335" y1="359.192" x2="246.3335" y2="276.52533" stroke="black" stroke-linecap="butt" stroke-linejoin="round" stroke-width="21.333333"/>
        </g>
        <g id="Graphic_23">
          <title>link 1</title>
          <line x1="446.3335" y1="113.85867" x2="246.3335" y2="276.52533" stroke="black" stroke-linecap="butt" stroke-linejoin="round" stroke-width="21.333333"/>
        </g>
      </g>
      <g id="Graphic_21">
        <title>hexagon</title>
        <path d="M 327.3035 32.52534 L 202.6955 32.52534 C 154.14617 32.52534 109.2835 58.42667 85.0075 100.472 L 22.703506 208.38667 C -1.57116 250.432 -1.57116 302.23467 22.703506 344.28 L 85.0075 452.19466 C 109.2835 494.24 154.14484 520.1413 202.6955 520.1413 L 327.3035 520.1413 C 375.85416 520.1413 420.71816 494.24 444.99283 452.19466 L 507.2955 344.28 C 531.5715 302.23467 531.5715 250.43333 507.2955 208.38667 L 444.99283 100.472 C 420.71816 58.42667 375.85416 32.52534 327.3035 32.52534 M 327.3035 53.85867 C 368.10216 53.85867 406.11816 75.80667 426.51683 111.13867 L 488.8208 219.05333 C 509.2208 254.38533 509.2208 298.28133 488.8208 333.61333 L 426.51683 441.528 C 406.11816 476.86 368.10216 498.808 327.3035 498.808 L 202.6955 498.808 C 161.89817 498.808 123.88217 476.86 103.4835 441.528 L 41.179506 333.61333 C 20.779506 298.28133 20.779506 254.38533 41.179506 219.05333 L 103.4835 111.13867 C 123.88217 75.80667 161.89817 53.85867 202.6955 53.85867 L 327.3035 53.85867" fill="black"/>
      </g>
      <g id="Group_6">
        <title>nodes</title>
        <g id="Graphic_20">
          <title>node 7</title>
          <path d="M 277.00003 65.85867 C 264.50137 65.85867 254.33337 55.69067 254.33337 43.192006 C 254.33337 30.69334 264.50137 20.52534 277.00003 20.52534 C 289.4987 20.52534 299.6667 30.69334 299.6667 43.192006 C 299.6667 55.69067 289.4987 65.85867 277.00003 65.85867" fill="white"/>
        </g>
        <g id="Graphic_19">
          <title>node 7 outline</title>
          <path d="M 277.00003 9.858673 C 258.5907 9.858673 243.6667 24.782673 243.6667 43.192006 C 243.6667 61.60134 258.5907 76.52534 277.00003 76.52534 C 295.40937 76.52534 310.33337 61.60134 310.33337 43.192006 C 310.33337 24.782673 295.40937 9.858673 277.00003 9.858673 M 277.00003 31.192006 C 283.61737 31.192006 289.00003 36.576006 289.00003 43.192006 C 289.00003 49.808005 283.61737 55.192005 277.00003 55.192005 C 270.3827 55.192005 265.00003 49.808005 265.00003 43.192006 C 265.00003 36.576006 270.3827 31.192006 277.00003 31.192006" fill="black"/>
        </g>
        <g id="Graphic_18">
          <title>node 6</title>
          <path d="M 110.3335 108.52534 C 97.83484 108.52534 87.66684 98.35734 87.66684 85.85867 C 87.66684 73.360005 97.83484 63.192005 110.3335 63.192005 C 122.83217 63.192005 133.00017 73.360005 133.00017 85.85867 C 133.00017 98.35734 122.83217 108.52534 110.3335 108.52534" fill="white"/>
        </g>
        <g id="Graphic_17">
          <title>node 6 outline</title>
          <path d="M 110.3335 52.52534 C 91.92417 52.52534 77.00017 67.44934 77.00017 85.85867 C 77.00017 104.268 91.92417 119.192 110.3335 119.192 C 128.74284 119.192 143.66684 104.268 143.66684 85.85867 C 143.66684 67.44934 128.74284 52.52534 110.3335 52.52534 M 110.3335 73.85867 C 116.95084 73.85867 122.3335 79.24267 122.3335 85.85867 C 122.3335 92.47467 116.95084 97.85867 110.3335 97.85867 C 103.71617 97.85867 98.3335 92.47467 98.3335 85.85867 C 98.3335 79.24267 103.71617 73.85867 110.3335 73.85867" fill="black"/>
        </g>
        <g id="Graphic_16">
          <title>node 5</title>
          <path d="M 41.00004 380.52533 C 28.501373 380.52533 18.333373 370.35733 18.333373 357.85866 C 18.333373 345.36 28.501373 335.192 41.00004 335.192 C 53.498705 335.192 63.666705 345.36 63.666705 357.85866 C 63.666705 370.35733 53.498705 380.52533 41.00004 380.52533" fill="white"/>
        </g>
        <g id="Graphic_15">
          <title>node 5 outine</title>
          <path d="M 41.00004 324.52533 C 22.590706 324.52533 7.666706 339.44933 7.666706 357.85866 C 7.666706 376.268 22.590706 391.192 41.00004 391.192 C 59.40937 391.192 74.33337 376.268 74.33337 357.85866 C 74.33337 339.44933 59.40937 324.52533 41.00004 324.52533 M 41.00004 345.85866 C 47.61604 345.85866 53.00004 351.24133 53.00004 357.85866 C 53.00004 364.476 47.61604 369.85866 41.00004 369.85866 C 34.38404 369.85866 29.00004 364.476 29.00004 357.85866 C 29.00004 351.24133 34.38404 345.85866 41.00004 345.85866" fill="black"/>
        </g>
        <g id="Graphic_14">
          <title>node 4</title>
          <path d="M 127.66684 507.192 C 115.16817 507.192 105.00017 497.024 105.00017 484.5253 C 105.00017 472.02666 115.16817 461.85866 127.66684 461.85866 C 140.1655 461.85866 150.3335 472.02666 150.3335 484.5253 C 150.3335 497.024 140.1655 507.192 127.66684 507.192" fill="white"/>
        </g>
        <g id="Graphic_13">
          <title>node 4 outline</title>
          <path d="M 127.66684 451.192 C 109.2575 451.192 94.3335 466.116 94.3335 484.5253 C 94.3335 502.93466 109.2575 517.85866 127.66684 517.85866 C 146.07617 517.85866 161.00017 502.93466 161.00017 484.5253 C 161.00017 466.116 146.07617 451.192 127.66684 451.192 M 127.66684 472.5253 C 134.28417 472.5253 139.66684 477.908 139.66684 484.5253 C 139.66684 491.14266 134.28417 496.5253 127.66684 496.5253 C 121.0495 496.5253 115.66684 491.14266 115.66684 484.5253 C 115.66684 477.908 121.0495 472.5253 127.66684 472.5253" fill="black"/>
        </g>
        <g id="Graphic_12">
          <title>node 3</title>
          <path d="M 438.3335 465.85866 C 425.83483 465.85866 415.66683 455.69066 415.66683 443.192 C 415.66683 430.69333 425.83483 420.52533 438.3335 420.52533 C 450.83216 420.52533 461.00016 430.69333 461.00016 443.192 C 461.00016 455.69066 450.83216 465.85866 438.3335 465.85866" fill="white"/>
        </g>
        <g id="Graphic_11">
          <title>node 3 outline</title>
          <path d="M 438.3335 409.85866 C 419.92416 409.85866 405.00016 424.78266 405.00016 443.192 C 405.00016 461.60133 419.92416 476.5253 438.3335 476.5253 C 456.74283 476.5253 471.66683 461.60133 471.66683 443.192 C 471.66683 424.78266 456.74283 409.85866 438.3335 409.85866 M 438.3335 431.192 C 444.95083 431.192 450.3335 436.57466 450.3335 443.192 C 450.3335 449.80933 444.95083 455.192 438.3335 455.192 C 431.71616 455.192 426.3335 449.80933 426.3335 443.192 C 426.3335 436.57466 431.71616 431.192 438.3335 431.192" fill="black"/>
        </g>
        <g id="Graphic_10">
          <title>node 2</title>
          <path d="M 487.6668 379.192 C 475.16816 379.192 465.00016 369.024 465.00016 356.52533 C 465.00016 344.02666 475.16816 333.85866 487.6668 333.85866 C 500.1655 333.85866 510.3335 344.02666 510.3335 356.52533 C 510.3335 369.024 500.1655 379.192 487.6668 379.192" fill="white"/>
        </g>
        <g id="Graphic_9">
          <title>node 2 outline</title>
          <path d="M 487.6668 323.192 C 469.2575 323.192 454.3335 338.116 454.3335 356.52533 C 454.3335 374.93466 469.2575 389.85866 487.6668 389.85866 C 506.07616 389.85866 521.00016 374.93466 521.00016 356.52533 C 521.00016 338.116 506.07616 323.192 487.6668 323.192 M 487.6668 344.52533 C 494.28416 344.52533 499.6668 349.908 499.6668 356.52533 C 499.6668 363.14266 494.28416 368.52533 487.6668 368.52533 C 481.0495 368.52533 475.6668 363.14266 475.6668 356.52533 C 475.6668 349.908 481.0495 344.52533 487.6668 344.52533" fill="black"/>
        </g>
        <g id="Graphic_8">
          <title>node 1</title>
          <path d="M 441.00016 140.52534 C 428.5015 140.52534 418.3335 130.35734 418.3335 117.85867 C 418.3335 105.36 428.5015 95.192 441.00016 95.192 C 453.49883 95.192 463.66683 105.36 463.66683 117.85867 C 463.66683 130.35734 453.49883 140.52534 441.00016 140.52534" fill="white"/>
        </g>
        <g id="Graphic_7">
          <title>node 1 outline</title>
          <path d="M 441.00016 84.52534 C 422.59083 84.52534 407.66683 99.44934 407.66683 117.85867 C 407.66683 136.268 422.59083 151.192 441.00016 151.192 C 459.4095 151.192 474.3335 136.268 474.3335 117.85867 C 474.3335 99.44934 459.4095 84.52534 441.00016 84.52534 M 441.00016 105.85867 C 447.6175 105.85867 453.00016 111.24267 453.00016 117.85867 C 453.00016 124.47467 447.6175 129.85867 441.00016 129.85867 C 434.38283 129.85867 429.00016 124.47467 429.00016 117.85867 C 429.00016 111.24267 434.38283 105.85867 441.00016 105.85867" fill="black"/>
        </g>
      </g>
      <g id="Group_3">
        <title>cloud</title>
        <g id="Graphic_5">
          <title>cloud outline</title>
          <path d="M 371.59123 185.68427 C 365.58723 185.71494 359.51523 186.49094 353.63656 187.65627 C 349.52856 188.4696 345.52856 189.7136 341.65656 191.3016 C 349.9379 194.67227 358.21923 198.0416 366.50056 201.41227 C 363.7899 195.5136 360.56856 189.86027 356.8139 184.56294 C 352.26723 178.14427 347.3139 171.9016 341.6659 166.40694 C 335.97923 160.87627 329.61657 155.88827 322.9699 151.57094 C 316.40723 147.30694 309.31923 144.12827 302.0499 141.2576 C 296.22323 138.95627 290.14457 137.29494 283.9539 136.32694 C 275.77523 135.04827 267.62723 134.16294 259.3499 134.71227 C 242.6459 135.8216 226.63523 140.35094 212.00323 148.56294 C 196.0019 157.54294 182.94457 170.52427 172.52457 185.4936 C 180.8059 182.12427 189.08724 178.7536 197.36857 175.38427 C 189.0619 172.2456 180.20857 170.73894 171.36857 170.11627 C 163.90324 169.5896 156.48857 170.45094 149.12457 171.67627 C 144.22457 172.49094 139.4139 173.8336 134.79524 175.66294 C 128.4899 178.15894 122.3179 180.86427 116.62457 184.56694 C 94.82324 198.74827 78.9739 220.8776 72.22724 245.9936 C 70.329905 253.05493 69.28724 260.4056 68.66857 267.67627 C 68.185905 273.34293 68.22457 279.0536 68.78324 284.71227 C 69.49257 291.89093 70.529905 299.11893 72.48457 306.07893 C 74.39657 312.88293 77.12857 319.5176 80.2019 325.8696 C 82.47257 330.55893 85.16724 335.0456 88.2579 339.24026 C 92.2659 344.68026 96.4539 349.9936 101.3819 354.6336 C 106.2779 359.2456 111.69924 363.4536 117.38057 367.05226 C 123.09124 370.67093 129.32724 373.39226 135.63124 375.7976 C 140.34857 377.5976 145.2579 378.8896 150.25257 379.6376 C 157.61257 380.7376 164.84057 381.56693 172.27524 380.95226 C 188.2419 379.63226 203.8899 374.92026 217.2699 365.91226 C 221.23123 363.2456 225.01923 360.28426 228.66323 357.20026 C 219.77657 358.34693 210.8899 359.4936 202.00323 360.64026 C 209.93123 366.5376 218.59123 370.73626 227.75523 374.3816 C 237.02723 378.0696 246.7699 379.81093 256.6739 380.78426 C 266.56857 381.7576 276.53657 380.79893 286.28723 378.99226 C 295.78857 377.2336 304.93123 373.7056 313.58723 369.4696 C 323.04457 364.84426 331.71123 358.43226 339.4859 351.3776 L 308.37257 351.3776 C 313.13923 356.4736 318.6619 360.89626 324.39657 364.84693 C 330.1699 368.82293 336.54056 371.65226 343.0579 374.1816 C 349.75523 376.78026 356.6419 377.86026 363.75123 378.7336 C 368.66323 379.33626 373.63123 379.38693 378.55256 378.8376 C 384.74056 378.14826 390.89523 377.29493 396.82856 375.36293 C 402.5219 373.50693 408.1539 371.11626 413.39256 368.2056 C 418.6979 365.25626 423.57523 361.51093 428.22723 357.6376 C 431.6139 354.81893 434.7299 351.67893 437.5379 348.28426 C 441.48456 343.51493 445.27923 338.53893 448.34723 333.14826 C 451.4699 327.66293 453.98056 321.75493 456.1179 315.83093 C 457.69123 311.46827 458.88056 306.9656 459.6739 302.39493 C 460.8139 295.83093 461.66723 289.1296 461.66723 282.4536 C 461.66723 275.7776 460.81123 269.07627 459.6739 262.51227 C 458.86723 257.86293 457.6499 253.28427 456.03656 248.85093 C 453.88323 242.93493 451.37123 237.03093 448.23123 231.5576 C 445.14856 226.1816 441.34856 221.19893 437.39256 216.44693 C 434.57256 213.06293 431.44856 209.93227 428.0539 207.1256 C 423.38456 203.2656 418.51523 199.52693 413.19656 196.59494 C 407.94856 193.70027 402.31523 191.31227 396.6139 189.4776 C 390.68056 187.56827 384.50456 186.71227 378.32323 186.0456 C 376.0859 185.80427 373.84056 185.69227 371.59123 185.68427 C 365.96323 185.66294 360.0099 188.15227 356.03523 192.12827 C 352.21923 195.94294 349.3459 202.20427 349.59123 207.68427 C 349.8459 213.3736 351.71523 219.27493 356.03523 223.24027 C 360.34856 227.20027 365.6219 229.6616 371.59123 229.68427 C 374.38056 229.6936 377.15656 229.8776 379.92056 230.23893 C 377.97123 229.97627 376.0219 229.7136 374.07256 229.45227 C 379.62056 230.21627 385.02056 231.70027 390.18856 233.86293 C 388.43656 233.12427 386.68456 232.38427 384.93256 231.6456 C 390.18323 233.88693 395.10056 236.79093 399.62723 240.26693 C 398.14456 239.12027 396.66056 237.9736 395.17523 236.82693 C 399.98323 240.5696 404.27256 244.90293 408.00723 249.71493 C 406.85923 248.23093 405.71256 246.74693 404.5659 245.26293 C 408.56456 250.48427 411.85923 256.18293 414.42723 262.23627 C 413.68856 260.4856 412.9499 258.73227 412.2099 256.9816 C 414.90723 263.4496 416.73656 270.22293 417.7019 277.16293 C 417.44056 275.2136 417.1779 273.2656 416.91656 271.31493 C 417.89923 278.71227 417.89923 286.19627 416.91656 293.5936 L 417.7019 287.7456 C 416.73656 294.6856 414.90723 301.45893 412.2099 307.92827 C 412.9499 306.17493 413.68856 304.42427 414.42723 302.67093 C 411.85923 308.72427 408.56456 314.4256 404.5659 319.6456 C 405.71256 318.1616 406.85923 316.6776 408.00723 315.1936 C 404.27256 320.0056 399.98323 324.33893 395.17523 328.0816 C 396.66056 326.93493 398.14456 325.78827 399.62723 324.6416 C 395.10056 328.1176 390.18323 331.0216 384.93256 333.26293 C 386.68456 332.52293 388.43656 331.78426 390.18856 331.0456 C 385.02056 333.20826 379.62056 334.69226 374.07256 335.45626 C 376.0219 335.19493 377.97123 334.93226 379.92056 334.6696 C 374.36323 335.3936 368.7579 335.38693 363.20056 334.66026 C 365.1499 334.92426 367.09923 335.1856 369.04856 335.44693 C 363.60723 334.68693 358.32056 333.2416 353.2419 331.14293 C 354.9939 331.8816 356.7459 332.6216 358.4979 333.3616 C 353.1419 331.0936 348.13656 328.14693 343.52456 324.60293 C 345.00856 325.75093 346.4939 326.89627 347.9779 328.04427 C 344.94456 325.6736 342.11523 323.07627 339.4859 320.2656 C 337.49256 318.11893 335.13256 316.60293 332.40456 315.71493 C 329.78457 314.3376 326.9579 313.70693 323.9299 313.8216 C 317.9339 314.0896 312.85257 316.20027 308.37257 320.2656 C 306.4259 322.03227 304.41523 323.71893 302.3379 325.3296 C 303.8219 324.18293 305.3059 323.0376 306.7899 321.8896 C 300.70857 326.5456 294.1059 330.43627 287.0619 333.44693 C 288.81257 332.70826 290.56323 331.9696 292.31657 331.2296 C 285.3739 334.14293 278.11523 336.15226 270.65923 337.1976 C 272.60857 336.93493 274.5579 336.67226 276.50723 336.41093 C 268.94857 337.41893 261.31257 337.4296 253.74857 336.4456 C 255.69923 336.70826 257.64857 336.9696 259.5979 337.23093 C 252.1139 336.20426 244.82723 334.20826 237.85523 331.30027 C 239.60723 332.03893 241.3579 332.7776 243.11123 333.5176 C 236.3899 330.6616 230.06857 327.00427 224.21123 322.64827 C 222.45923 321.90827 220.70723 321.16827 218.95523 320.43093 C 216.03123 319.51227 213.10723 319.3816 210.18323 320.0376 C 208.1979 320.04427 206.3459 320.54427 204.63123 321.53893 C 201.90323 322.42693 199.54323 323.9416 197.55124 326.08827 C 196.5459 326.9376 195.5259 327.7656 194.48457 328.5696 C 195.9699 327.42427 197.45257 326.27627 198.9379 325.1296 C 193.8739 328.99093 188.3859 332.21493 182.52324 334.70693 C 184.27524 333.96693 186.02724 333.22693 187.77924 332.4896 C 182.02724 334.87893 176.02457 336.52026 169.85257 337.36826 C 171.8019 337.1056 173.75124 336.84426 175.7019 336.58293 C 169.56324 337.3736 163.37124 337.37893 157.2339 336.58293 C 159.18324 336.84426 161.13257 337.10693 163.0819 337.3696 C 156.79657 336.51226 150.67657 334.82693 144.83257 332.36293 C 146.58457 333.1016 148.33657 333.84026 150.08857 334.58026 C 144.30324 332.09893 138.87924 328.8936 133.88324 325.0656 C 135.36724 326.21227 136.85124 327.35893 138.33524 328.50427 C 132.93257 324.31493 128.11257 319.45093 123.92057 314.05093 C 125.06724 315.53627 126.2139 317.02027 127.36057 318.50427 C 122.89257 312.67893 119.20857 306.31493 116.33924 299.5576 C 117.0779 301.31093 117.81657 303.0616 118.55657 304.8136 C 115.48057 297.4616 113.4099 289.74827 112.34324 281.85093 C 112.60457 283.8016 112.86724 285.75093 113.12857 287.70027 C 112.0859 279.64293 112.0859 271.49227 113.12857 263.43493 C 112.86724 265.38427 112.60457 267.3336 112.34324 269.28293 C 113.4099 261.3856 115.48057 253.6736 118.55657 246.3216 C 117.81657 248.0736 117.0779 249.82427 116.33924 251.57627 C 119.20857 244.8216 122.89257 238.45493 127.36057 232.63093 C 126.2139 234.11493 125.06724 235.59893 123.92057 237.08293 C 128.11257 231.68293 132.93257 226.82027 138.33524 222.6296 C 136.85124 223.77627 135.36724 224.92293 133.88324 226.0696 C 138.87924 222.2416 144.30324 219.03627 150.08857 216.55493 C 148.33657 217.2936 146.58457 218.0336 144.83257 218.77227 C 150.67657 216.30827 156.79657 214.6216 163.0819 213.76693 C 161.13257 214.02827 159.18324 214.2896 157.2339 214.55227 C 163.3219 213.76427 169.4579 213.76427 175.54857 214.5376 C 173.59924 214.27493 171.64857 214.0136 169.70057 213.75093 C 175.17124 214.4976 180.50724 215.8616 185.67257 217.81227 C 187.6219 218.0736 189.57124 218.33627 191.52057 218.59893 C 194.5499 218.71227 197.37524 218.08027 199.99657 216.70293 C 201.86057 216.1816 203.4779 215.2376 204.85123 213.87493 C 207.2459 212.32293 209.13523 210.2656 210.51657 207.7016 C 211.5339 206.2416 212.58323 204.80693 213.66723 203.3976 C 212.52057 204.8816 211.3739 206.3656 210.22723 207.85093 C 215.29257 201.3376 221.11523 195.4696 227.63657 190.41227 C 226.15257 191.55894 224.66857 192.7056 223.18323 193.85227 C 229.36857 189.11094 236.0979 185.15894 243.28057 182.12827 C 241.52723 182.86694 239.77657 183.6056 238.02457 184.3456 C 244.95523 181.46827 252.20323 179.4936 259.64057 178.48027 C 257.69123 178.7416 255.74057 179.00427 253.79123 179.26694 C 261.2099 178.3016 268.70457 178.2976 276.12323 179.25494 C 274.1739 178.99227 272.22457 178.73094 270.27523 178.46827 C 277.81123 179.48694 285.15523 181.4936 292.17123 184.42827 C 290.41923 183.68827 288.66723 182.9496 286.91523 182.2096 C 294.01123 185.22427 300.6659 189.1416 306.78457 193.8296 C 305.29923 192.68294 303.81523 191.53627 302.33123 190.3896 C 308.90457 195.48294 314.76857 201.4016 319.86057 207.9736 C 318.7139 206.4896 317.5659 205.0056 316.42057 203.52027 C 321.19523 209.74827 325.23123 216.4896 328.50723 223.62027 C 329.65523 225.10293 330.80057 226.58827 331.94856 228.07227 C 333.94056 230.2176 336.30056 231.7336 339.02856 232.6216 C 343.1419 234.3576 349.04323 235.49627 353.35256 233.7296 C 358.41256 231.65493 363.67256 230.21893 369.0899 229.45893 C 367.13923 229.72027 365.1899 229.98293 363.24056 230.24427 C 366.0139 229.88427 368.7939 229.69893 371.59123 229.68427 C 377.25123 229.65493 383.1379 227.2496 387.14856 223.24027 C 390.96323 219.42427 393.8379 213.16427 393.59123 207.68427 C 393.3379 201.9936 391.46723 196.0936 387.14856 192.12827 C 382.85656 188.18827 377.5419 185.6536 371.59123 185.68427" fill="black"/>
        </g>
        <g id="Graphic_4">
          <title>cloud</title>
          <path d="M 371.59123 207.68427 C 363.10856 207.68427 354.99523 209.4016 347.50456 212.51627 C 332.35256 179.32294 301.1099 156.5256 265.00057 156.5256 C 235.00857 156.5256 208.37123 172.2536 191.52057 196.59894 C 183.6739 193.59494 175.2499 191.94294 166.4699 191.94294 C 124.42057 191.94294 90.3339 229.38293 90.3339 275.56693 C 90.3339 321.75227 124.42057 359.19226 166.4699 359.19226 C 184.04724 359.19226 200.22057 352.63226 213.10723 341.64426 C 227.8939 352.71226 245.75657 359.19226 265.00057 359.19226 C 287.40723 359.19226 307.9459 350.41226 323.9299 335.8216 C 336.2099 349.0536 353.02856 357.22426 371.59123 357.22426 C 409.18856 357.22426 439.66723 323.74827 439.66723 282.4536 C 439.66723 241.15893 409.18856 207.68427 371.59123 207.68427" fill="white"/>
        </g>
      </g>
    </g>
  </g>
</svg>
